<svg version="1.1" xmlns="http://www.w3.org/2000/svg" viewBox="0 0 352 348">
<path fill="#050505" d="M1,124C1,82.68 1,41.86 1,1.02C118.28,1.02 235.55,1.02 352.92,1.02C352.92,116.9 352.92,232.8 352.92,348.85C235.67,348.85 118.33,348.85 1,348.85C1,274.11 1,199.31 1,124M184.5,119.86C161.5,119.87 138.5,120.01 115.51,119.77C110.56,119.72 108.94,120.93 108.98,126.13C109.22,160.13 109.07,194.13 109.16,228.13C109.18,234.22 109.72,240.32 110.02,246.42C116.13,246.63 122.24,246.98 128.35,247.05C137.92,247.15 147.5,247.07 157.25,247.07C157.25,258.05 157.25,268.48 157.25,279.62C165.64,272.82 173.98,267.4 180.61,260.37C190.77,249.59 202.29,245.8 217,246.67C231.8,247.55 244.05,235.69 245.92,220.86C246.75,214.28 246.64,207.57 246.62,200.91C246.56,182.76 247.02,164.56 245.95,146.45C245.01,130.33 232.74,120.04 216.5,119.89C206.17,119.8 195.83,119.86 184.5,119.86M224.5,9.71C156.03,9.71 87.56,9.71 19.1,9.71C16.6,9.71 14.1,9.7 11.6,9.72C7.73,9.75 5.75,11.72 5.72,15.58C5.68,19.75 5.69,23.91 5.7,28.08C5.72,35.76 6.89,36.9 14.78,36.9C95.58,36.89 176.37,36.89 257.17,36.89C284.49,36.88 311.81,36.89 339.13,36.9C348.46,36.91 349.24,36.11 349.25,26.57C349.26,23.74 349.28,20.91 349.29,18.08C349.31,10.72 348.27,9.67 340.95,9.67C302.46,9.68 263.98,9.7 224.5,9.71M322.76,256.5C322.77,274.99 322.78,293.47 322.79,311.96C322.79,318.78 322.78,318.77 315.89,318.77C285.58,318.78 255.27,318.79 224.95,318.82C218.61,318.83 217.48,320.04 217.51,326.48C217.52,329.48 217.55,332.47 217.55,335.47C217.55,342.78 218.55,343.77 225.94,343.77C260.75,343.77 295.56,343.76 330.37,343.77C344.21,343.78 349.38,338.69 349.38,324.84C349.39,286.53 349.37,248.22 349.37,209.92C349.36,182.27 349.37,154.62 349.39,126.97C349.39,120.49 348.12,119.09 342.07,119.07C338.41,119.05 334.74,119.11 331.08,119.13C323.9,119.15 322.79,120.24 322.79,127.59C322.77,170.23 322.77,212.86 322.76,256.5M53.5,318.75C48.17,318.76 42.83,318.57 37.51,318.83C33.51,319.03 32.04,317.9 32.06,313.55C32.23,277.91 32.22,242.26 32.05,206.62C32.02,202.18 32.91,200.1 37.77,200.73C42.3,201.32 44.6,199.18 44.38,194.37C44.17,189.72 44.24,185.05 44.28,180.38C44.32,176.44 42.42,174.53 38.52,174.54C33.35,174.55 28.19,174.53 23.03,174.6C9.95,174.78 5.63,179.09 5.63,192.06C5.61,236.7 5.62,281.34 5.65,325.98C5.65,338.14 11.25,343.77 23.31,343.78C50.63,343.79 77.94,343.78 105.26,343.77C113.75,343.77 122.25,343.73 130.74,343.8C135.05,343.83 137.3,342.04 137.19,337.55C137.1,333.89 137.21,330.22 137.19,326.56C137.16,319.57 136.29,318.71 129.46,318.72C104.47,318.73 79.49,318.74 53.5,318.75M51.5,91.72C81.33,91.74 111.15,91.78 140.98,91.78C147.12,91.78 148.7,90.2 148.76,84.16C148.81,79.83 148.76,75.5 148.76,71.17C148.75,66.95 146.95,64.74 142.43,64.74C99.11,64.8 55.78,64.76 12.46,64.8C7.04,64.8 5.76,66.19 5.67,71.7C5.6,75.37 5.65,79.03 5.66,82.7C5.7,90.64 6.72,91.69 14.51,91.71C26.51,91.73 38.5,91.72 51.5,91.72M244.5,273.18C230.67,273.19 216.84,273.19 203.02,273.21C196.13,273.23 195.41,273.99 195.4,281.06C195.39,283.73 195.37,286.39 195.37,289.06C195.38,294.84 196.68,296.22 202.33,296.22C228.49,296.22 254.65,296.21 280.8,296.16C290.08,296.15 295.36,291.06 295.61,281.75C295.78,275.09 295.66,268.42 295.66,261.76C295.65,247.26 295.66,232.77 295.6,218.28C295.58,212.49 294.72,211.74 288.84,211.77C285.68,211.78 282.5,211.98 279.35,211.73C274.53,211.34 272.96,213.35 273.02,218.12C273.25,234.62 273.13,251.11 273.14,267.6C273.14,269.36 273.14,271.12 273.14,273.18C263.45,273.18 254.47,273.18 244.5,273.18M273.15,108.5C273.15,123.98 273.24,139.46 273.1,154.94C273.06,159.44 274.73,161.42 279.29,161.09C282.27,160.88 285.28,161.04 288.27,161.02C294.53,160.97 295.63,159.93 295.64,153.85C295.66,130.04 295.67,106.24 295.65,82.44C295.65,80.61 295.58,78.76 295.28,76.97C294.21,70.46 289.58,66.05 283.05,66C263.57,65.85 244.1,65.95 224.62,65.93C221.07,65.93 219.45,67.66 219.48,71.15C219.51,75.31 219.51,79.47 219.47,83.63C219.43,87.58 221.26,89.38 225.28,89.29C231.94,89.14 238.6,89.2 245.25,89.2C254.36,89.19 263.47,89.19 273.15,89.19C273.15,95.62 273.15,101.56 273.15,108.5M60.1,259.5C60.09,267.16 59.95,274.83 60.12,282.49C60.3,290.45 65.57,296.06 73.12,296.12C92.61,296.26 112.11,296.15 131.6,296.21C135.45,296.22 137.01,294.27 137.02,290.66C137.02,286.83 136.96,282.99 137.09,279.16C137.22,274.93 135.27,273.08 131.08,273.13C124.08,273.22 117.08,273.16 110.09,273.16C101.14,273.16 92.19,273.16 82.76,273.16C82.76,271.04 82.76,269.42 82.76,267.8C82.76,251.64 82.75,235.47 82.74,219.31C82.74,212.24 82.27,211.79 74.99,211.76C72.16,211.74 69.32,211.83 66.49,211.64C61.84,211.32 59.88,213.17 59.96,218.01C60.19,231.51 60.08,245 60.1,259.5M8.6,146.17C9.23,146.37 9.87,146.74 10.5,146.74C33.31,146.81 56.11,146.88 78.92,146.83C82.46,146.82 84.38,144.73 84.38,141.07C84.39,135.91 84.44,130.75 84.44,125.59C84.43,121.77 82.71,119.79 78.66,119.8C56.35,119.87 34.04,119.86 11.73,119.84C7.53,119.83 5.65,121.86 5.68,125.96C5.72,130.79 5.47,135.63 5.75,140.44C5.86,142.25 7.1,143.99 8.6,146.17M194.71,322.01C190.63,315.38 184.66,313.17 177.24,314.79C171.14,316.13 167.42,320.16 165.93,326.07C164.31,332.48 167.17,338.96 172.73,342.35C178.01,345.58 186.23,345.02 190.98,341.1C196.41,336.61 197.8,330.28 194.71,322.01M176.49,65.72C171.29,69.51 169.06,74.67 170.19,80.93C171.29,86.98 175.09,90.84 181.04,92.68C187.15,94.56 193.77,92.72 197.66,87.8C201.85,82.52 202.25,75.73 198.7,70.15C195.12,64.53 188.83,62 182.28,63.62C180.52,64.05 178.81,64.69 176.49,65.72M320.15,76.82C320.26,90.08 331.7,97.68 342.42,91.6C348.33,88.24 351.5,81.01 349.9,74.51C348.34,68.15 342.2,63.25 335.72,63.18C327.93,63.09 322.54,67.55 320.15,76.82M68.36,200.43C79.56,202.35 88.93,193.41 86.57,183.06C84.86,175.5 78.6,170.58 71.09,170.86C64.32,171.12 58,176.43 56.89,182.81C55.51,190.79 59.36,197.02 68.36,200.43M288.54,200.49C290.27,199.53 292.17,198.79 293.7,197.58C300.3,192.38 301.16,182.87 295.76,176.31C290.47,169.89 280.72,169.22 274.43,174.83C269.35,179.37 267.88,185.88 270.54,192.03C273.33,198.46 279.52,201.61 288.54,200.49z"/>
<path fill="#FAFAFA" d="M185,119.86C195.83,119.86 206.17,119.8 216.5,119.89C232.74,120.04 245.01,130.33 245.95,146.45C247.02,164.56 246.56,182.76 246.62,200.91C246.64,207.57 246.75,214.28 245.92,220.86C244.05,235.69 231.8,247.55 217,246.67C202.29,245.8 190.77,249.59 180.61,260.37C173.98,267.4 165.64,272.82 157.25,279.62C157.25,268.48 157.25,258.05 157.25,247.07C147.5,247.07 137.92,247.15 128.35,247.05C122.24,246.98 116.13,246.63 110.02,246.42C109.72,240.32 109.18,234.22 109.16,228.13C109.07,194.13 109.22,160.13 108.98,126.13C108.94,120.93 110.56,119.72 115.51,119.77C138.5,120.01 161.5,119.87 185,119.86M162.95,242.64C166.07,239.89 169.31,237.25 172.29,234.35C182.99,223.92 194.74,217.04 210.68,219.73C217.13,220.82 219.77,217.57 219.8,210.92C219.88,192.42 219.87,173.93 219.78,155.43C219.75,149.4 217.16,146.91 211.24,146.9C187.74,146.87 164.25,146.99 140.75,146.81C136.69,146.78 135.66,148.12 135.7,151.99C135.88,170.32 135.79,188.65 135.81,206.98C135.83,219.96 135.84,219.96 148.94,219.94C156.87,219.93 156.85,219.93 156.8,227.74C156.77,234.11 156.8,240.47 156.8,247.24C157.97,246.65 158.3,246.55 158.54,246.35C159.82,245.28 161.07,244.18 162.95,242.64z"/>
<path fill="#FCFCFC" d="M225,9.71C263.98,9.7 302.46,9.68 340.95,9.67C348.27,9.67 349.31,10.72 349.29,18.08C349.28,20.91 349.26,23.74 349.25,26.57C349.24,36.11 348.46,36.91 339.13,36.9C311.81,36.89 284.49,36.88 257.17,36.89C176.37,36.89 95.58,36.89 14.78,36.9C6.89,36.9 5.72,35.76 5.7,28.08C5.69,23.91 5.68,19.75 5.72,15.58C5.75,11.72 7.73,9.75 11.6,9.72C14.1,9.7 16.6,9.71 19.1,9.71C87.56,9.71 156.03,9.71 225,9.71z"/>
<path fill="#FCFCFC" d="M322.76,256C322.77,212.86 322.77,170.23 322.79,127.59C322.79,120.24 323.9,119.15 331.08,119.13C334.74,119.11 338.41,119.05 342.07,119.07C348.12,119.09 349.39,120.49 349.39,126.97C349.37,154.62 349.36,182.27 349.37,209.92C349.37,248.22 349.39,286.53 349.38,324.84C349.38,338.69 344.21,343.78 330.37,343.77C295.56,343.76 260.75,343.77 225.94,343.77C218.55,343.77 217.55,342.78 217.55,335.47C217.55,332.47 217.52,329.48 217.51,326.48C217.48,320.04 218.61,318.83 224.95,318.82C255.27,318.79 285.58,318.78 315.89,318.77C322.78,318.77 322.79,318.78 322.79,311.96C322.78,293.47 322.77,274.99 322.76,256z"/>
<path fill="#FCFCFC" d="M54,318.75C79.49,318.74 104.47,318.73 129.46,318.72C136.29,318.71 137.16,319.57 137.19,326.56C137.21,330.22 137.1,333.89 137.19,337.55C137.3,342.04 135.05,343.83 130.74,343.8C122.25,343.73 113.75,343.77 105.26,343.77C77.94,343.78 50.63,343.79 23.31,343.78C11.25,343.77 5.65,338.14 5.65,325.98C5.62,281.34 5.61,236.7 5.63,192.06C5.63,179.09 9.95,174.78 23.03,174.6C28.19,174.53 33.35,174.55 38.52,174.54C42.42,174.53 44.32,176.44 44.28,180.38C44.24,185.05 44.17,189.72 44.38,194.37C44.6,199.18 42.3,201.32 37.77,200.73C32.91,200.1 32.02,202.18 32.05,206.62C32.22,242.26 32.23,277.91 32.06,313.55C32.04,317.9 33.51,319.03 37.51,318.83C42.83,318.57 48.17,318.76 54,318.75z"/>
<path fill="#FAFAFA" d="M51,91.72C38.5,91.72 26.51,91.73 14.51,91.71C6.72,91.69 5.7,90.64 5.66,82.7C5.65,79.03 5.6,75.37 5.67,71.7C5.76,66.19 7.04,64.8 12.46,64.8C55.78,64.76 99.11,64.8 142.43,64.74C146.95,64.74 148.75,66.95 148.76,71.17C148.76,75.5 148.81,79.83 148.76,84.16C148.7,90.2 147.12,91.78 140.98,91.78C111.15,91.78 81.33,91.74 51,91.72z"/>
<path fill="#F8F8F8" d="M245,273.18C254.47,273.18 263.45,273.18 273.14,273.18C273.14,271.12 273.14,269.36 273.14,267.6C273.13,251.11 273.25,234.62 273.02,218.12C272.96,213.35 274.53,211.34 279.35,211.73C282.5,211.98 285.68,211.78 288.84,211.77C294.72,211.74 295.58,212.49 295.6,218.28C295.66,232.77 295.65,247.26 295.66,261.76C295.66,268.42 295.78,275.09 295.61,281.75C295.36,291.06 290.08,296.15 280.8,296.16C254.65,296.21 228.49,296.22 202.33,296.22C196.68,296.22 195.38,294.84 195.37,289.06C195.37,286.39 195.39,283.73 195.4,281.06C195.41,273.99 196.13,273.23 203.02,273.21C216.84,273.19 230.67,273.19 245,273.18z"/>
<path fill="#F9F9F9" d="M273.15,108C273.15,101.56 273.15,95.62 273.15,89.19C263.47,89.19 254.36,89.19 245.25,89.2C238.6,89.2 231.94,89.14 225.28,89.29C221.26,89.38 219.43,87.58 219.47,83.63C219.51,79.47 219.51,75.31 219.48,71.15C219.45,67.66 221.07,65.93 224.62,65.93C244.1,65.95 263.57,65.85 283.05,66C289.58,66.05 294.21,70.46 295.28,76.97C295.58,78.76 295.65,80.61 295.65,82.44C295.67,106.24 295.66,130.04 295.64,153.85C295.63,159.93 294.53,160.97 288.27,161.02C285.28,161.04 282.27,160.88 279.29,161.09C274.73,161.42 273.06,159.44 273.1,154.94C273.24,139.46 273.15,123.98 273.15,108z"/>
<path fill="#F9F9F9" d="M60.1,259C60.08,245 60.19,231.51 59.96,218.01C59.88,213.17 61.84,211.32 66.49,211.64C69.32,211.83 72.16,211.74 74.99,211.76C82.27,211.79 82.74,212.24 82.74,219.31C82.75,235.47 82.76,251.64 82.76,267.8C82.76,269.42 82.76,271.04 82.76,273.16C92.19,273.16 101.14,273.16 110.09,273.16C117.08,273.16 124.08,273.22 131.08,273.13C135.27,273.08 137.22,274.93 137.09,279.16C136.96,282.99 137.02,286.83 137.02,290.66C137.01,294.27 135.45,296.22 131.6,296.21C112.11,296.15 92.61,296.26 73.12,296.12C65.57,296.06 60.3,290.45 60.12,282.49C59.95,274.83 60.09,267.16 60.1,259z"/>
<path fill="#FBFBFB" d="M8.21,145.96C7.1,143.99 5.86,142.25 5.75,140.44C5.47,135.63 5.72,130.79 5.68,125.96C5.65,121.86 7.53,119.83 11.73,119.84C34.04,119.86 56.35,119.87 78.66,119.8C82.71,119.79 84.43,121.77 84.44,125.59C84.44,130.75 84.39,135.91 84.38,141.07C84.38,144.73 82.46,146.82 78.92,146.83C56.11,146.88 33.31,146.81 10.5,146.74C9.87,146.74 9.23,146.37 8.21,145.96z"/>
<path fill="#F7F7F7" d="M194.87,322.35C197.8,330.28 196.41,336.61 190.98,341.1C186.23,345.02 178.01,345.58 172.73,342.35C167.17,338.96 164.31,332.48 165.93,326.07C167.42,320.16 171.14,316.13 177.24,314.79C184.66,313.17 190.63,315.38 194.87,322.35z"/>
<path fill="#F8F8F8" d="M176.79,65.47C178.81,64.69 180.52,64.05 182.28,63.62C188.83,62 195.12,64.53 198.7,70.15C202.25,75.73 201.85,82.52 197.66,87.8C193.77,92.72 187.15,94.56 181.04,92.68C175.09,90.84 171.29,86.98 170.19,80.93C169.06,74.67 171.29,69.51 176.79,65.47z"/>
<path fill="#F7F7F7" d="M320.19,76.41C322.54,67.55 327.93,63.09 335.72,63.18C342.2,63.25 348.34,68.15 349.9,74.51C351.5,81.01 348.33,88.24 342.42,91.6C331.7,97.68 320.26,90.08 320.19,76.41z"/>
<path fill="#F8F8F8" d="M67.98,200.3C59.36,197.02 55.51,190.79 56.89,182.81C58,176.43 64.32,171.12 71.09,170.86C78.6,170.58 84.86,175.5 86.57,183.06C88.93,193.41 79.56,202.35 67.98,200.3z"/>
<path fill="#F7F7F7" d="M288.16,200.63C279.52,201.61 273.33,198.46 270.54,192.03C267.88,185.88 269.35,179.37 274.43,174.83C280.72,169.22 290.47,169.89 295.76,176.31C301.16,182.87 300.3,192.38 293.7,197.58C292.17,198.79 290.27,199.53 288.16,200.63z"/>
<path fill="#030303" d="M162.64,242.87C161.07,244.18 159.82,245.28 158.54,246.35C158.3,246.55 157.97,246.65 156.8,247.24C156.8,240.47 156.77,234.11 156.8,227.74C156.85,219.93 156.87,219.93 148.94,219.94C135.84,219.96 135.83,219.96 135.81,206.98C135.79,188.65 135.88,170.32 135.7,151.99C135.66,148.12 136.69,146.78 140.75,146.81C164.25,146.99 187.74,146.87 211.24,146.9C217.16,146.91 219.75,149.4 219.78,155.43C219.87,173.93 219.88,192.42 219.8,210.92C219.77,217.57 217.13,220.82 210.68,219.73C194.74,217.04 182.99,223.92 172.29,234.35C169.31,237.25 166.07,239.89 162.64,242.87z"/>
</svg>
