<svg version="1.1" id="Layer_1" xmlns="http://www.w3.org/2000/svg" xmlns:xlink="http://www.w3.org/1999/xlink" x="0px" y="0px"
	 width="100%" viewBox="0 0 352 348" enable-background="new 0 0 352 348" xml:space="preserve">
<path fill="#050505" opacity="1.000000" stroke="none" 
	d="
M1.000000,124.000000 
	C1.000000,82.681252 1.000000,41.862495 1.000000,1.021872 
	C118.276855,1.021872 235.553711,1.021872 352.915283,1.021872 
	C352.915283,116.902046 352.915283,232.804169 352.915283,348.853149 
	C235.666809,348.853149 118.333427,348.853149 1.000000,348.853149 
	C1.000000,274.113068 1.000000,199.306534 1.000000,124.000000 
M184.500061,119.859207 
	C161.501587,119.865334 138.501709,120.006844 115.505722,119.770042 
	C110.557777,119.719086 108.938148,120.928177 108.975418,126.133751 
	C109.218849,160.129974 109.069321,194.128845 109.161736,228.126526 
	C109.178307,234.223526 109.722389,240.319092 110.022911,246.415329 
	C116.130798,246.634918 122.237312,246.977539 128.346893,247.045746 
	C137.920837,247.152618 147.496826,247.074081 157.245529,247.074081 
	C157.245529,258.050171 157.245529,268.483612 157.245529,279.620819 
	C165.635834,272.819031 173.977509,267.400238 180.608932,260.368530 
	C190.770569,249.593506 202.285538,245.800430 217.002197,246.671005 
	C231.801971,247.546463 244.047913,235.685913 245.917404,220.861023 
	C246.746719,214.284805 246.640320,207.565369 246.619629,200.912018 
	C246.563156,182.755005 247.017654,164.557983 245.954407,146.454041 
	C245.007263,130.327393 232.740921,120.035660 216.498032,119.890038 
	C206.166122,119.797401 195.832794,119.864014 184.500061,119.859207 
M224.500153,9.713542 
	C156.031952,9.713931 87.563766,9.714280 19.095570,9.714867 
	C16.596888,9.714889 14.098120,9.704638 11.599543,9.721431 
	C7.727792,9.747452 5.748100,11.718686 5.716763,15.581379 
	C5.682978,19.745743 5.693643,23.910568 5.702370,28.075155 
	C5.718465,35.755848 6.892664,36.898407 14.781196,36.898083 
	C95.577042,36.894798 176.372879,36.887127 257.168732,36.885288 
	C284.489288,36.884663 311.809875,36.894756 339.130432,36.904915 
	C348.457611,36.908382 349.244629,36.109791 349.253784,26.574888 
	C349.256500,23.742918 349.280396,20.910976 349.288300,18.079004 
	C349.308838,10.720138 348.265045,9.668185 340.946136,9.670815 
	C302.464142,9.684646 263.982147,9.699214 224.500153,9.713542 
M322.762604,256.499847 
	C322.770874,274.987000 322.782318,293.474182 322.785767,311.961334 
	C322.787018,318.779083 322.778412,318.771576 315.890930,318.773926 
	C285.578461,318.784180 255.265991,318.788971 224.953568,318.820679 
	C218.612930,318.827332 217.484909,320.035553 217.506668,326.479614 
	C217.516800,329.477295 217.547348,332.474945 217.547455,335.472626 
	C217.547729,342.775543 218.553925,343.774109 225.944733,343.773468 
	C260.754150,343.770538 295.563568,343.756561 330.372986,343.771729 
	C344.205353,343.777740 349.376404,338.694611 349.380646,324.836914 
	C349.392395,286.529938 349.367554,248.222946 349.365784,209.915955 
	C349.364532,182.268478 349.373383,154.621002 349.386047,126.973526 
	C349.389008,120.487953 348.124481,119.085403 342.071198,119.065781 
	C338.407349,119.053902 334.743317,119.114578 331.079315,119.126083 
	C323.896332,119.148643 322.791840,120.239471 322.788849,127.587761 
	C322.771576,170.225113 322.769684,212.862473 322.762604,256.499847 
M53.500462,318.751312 
	C48.170513,318.757355 42.830738,318.567291 37.513832,318.833679 
	C33.508198,319.034393 32.035732,317.900085 32.056606,313.554047 
	C32.227783,277.909546 32.219311,242.263443 32.046410,206.618881 
	C32.024872,202.179306 32.908371,200.099091 37.773666,200.730499 
	C42.300213,201.317947 44.597950,199.177826 44.378654,194.373184 
	C44.166191,189.718216 44.240761,185.047394 44.283314,180.384384 
	C44.319324,176.438873 42.417587,174.531479 38.515221,174.541199 
	C33.352005,174.554047 28.188150,174.525681 23.025709,174.597260 
	C9.954525,174.778503 5.634366,179.088074 5.629843,192.055542 
	C5.614275,236.695541 5.620389,281.335541 5.646718,325.975555 
	C5.653891,338.137726 11.254086,343.767670 23.308264,343.775635 
	C50.625301,343.793640 77.942360,343.775513 105.259407,343.773560 
	C113.754341,343.772949 122.249680,343.729126 130.744049,343.799194 
	C135.046097,343.834717 137.300262,342.036041 137.191528,337.548676 
	C137.102798,333.886597 137.213837,330.220154 137.193665,326.555847 
	C137.155228,319.574066 136.289032,318.712463 129.455551,318.716095 
	C104.470490,318.729370 79.485420,318.740845 53.500462,318.751312 
M51.499928,91.721138 
	C81.325935,91.743011 111.151939,91.776688 140.977951,91.777031 
	C147.115524,91.777100 148.699493,90.201302 148.764221,84.163902 
	C148.810669,79.832199 148.757584,75.499481 148.756195,71.167213 
	C148.754837,66.946129 146.952148,64.735329 142.429443,64.741356 
	C99.106705,64.799118 55.783852,64.761208 12.461072,64.798996 
	C7.037465,64.803726 5.763888,66.190361 5.665268,71.703285 
	C5.599714,75.367836 5.646967,79.034653 5.663461,82.700363 
	C5.699193,90.641495 6.721661,91.694809 14.508722,91.707024 
	C26.505766,91.725838 38.502850,91.718231 51.499928,91.721138 
M244.500061,273.178192 
	C230.672073,273.188904 216.844086,273.189423 203.016129,273.214691 
	C196.126465,273.227295 195.407669,273.990845 195.397995,281.063843 
	C195.394333,283.729340 195.367859,286.394897 195.372894,289.060364 
	C195.383804,294.839539 196.681580,296.217285 202.334534,296.217468 
	C228.491135,296.218201 254.647751,296.207458 280.804291,296.162567 
	C290.079712,296.146667 295.363251,291.056976 295.607056,281.750092 
	C295.781494,275.090424 295.664612,268.422913 295.660522,261.758881 
	C295.651642,247.264481 295.659363,232.769974 295.602753,218.275726 
	C295.580139,212.486450 294.724884,211.737488 288.844727,211.767029 
	C285.679352,211.782944 282.497314,211.980301 279.352295,211.727875 
	C274.525726,211.340515 272.955444,213.345871 273.022522,218.124527 
	C273.253937,234.615112 273.129333,251.110687 273.140015,267.604370 
	C273.141144,269.359894 273.140137,271.115417 273.140137,273.179474 
	C263.449799,273.179474 254.474945,273.179474 244.500061,273.178192 
M273.146606,108.500511 
	C273.150848,123.981026 273.244843,139.462357 273.103149,154.941528 
	C273.062042,159.435257 274.731201,161.419968 279.286652,161.094254 
	C282.268524,160.881027 285.276337,161.036011 288.272461,161.015411 
	C294.534393,160.972336 295.634918,159.931015 295.640533,153.845673 
	C295.662445,130.042404 295.669739,106.239090 295.653870,82.435822 
	C295.652649,80.612259 295.576233,78.764610 295.281677,76.969704 
	C294.213409,70.460152 289.578339,66.046654 283.046936,65.996277 
	C263.572784,65.846077 244.096741,65.954918 224.621460,65.932037 
	C221.066757,65.927864 219.454605,67.664299 219.480392,71.150391 
	C219.511169,75.311462 219.511078,79.473244 219.471786,83.634224 
	C219.434540,87.580299 221.257645,89.379280 225.279953,89.289879 
	C231.935257,89.141945 238.595413,89.203712 245.253555,89.196236 
	C254.363297,89.186020 263.473083,89.193687 273.147339,89.193687 
	C273.147339,95.617493 273.147339,101.559158 273.146606,108.500511 
M60.097591,259.500000 
	C60.093269,267.164001 59.948895,274.831146 60.123264,282.491089 
	C60.304413,290.448792 65.568596,296.063782 73.119316,296.119690 
	C92.611725,296.264069 112.105904,296.154449 131.599197,296.209473 
	C135.452927,296.220337 137.011047,294.272430 137.017624,290.658447 
	C137.024597,286.826447 136.959366,282.991577 137.085327,279.163208 
	C137.224564,274.930878 135.266022,273.077759 131.078918,273.130402 
	C124.082352,273.218475 117.083946,273.161682 110.086311,273.162964 
	C101.138474,273.164581 92.190628,273.163330 82.763802,273.163330 
	C82.763802,271.036499 82.764488,269.416962 82.763702,267.797455 
	C82.755867,251.636185 82.747948,235.474930 82.739723,219.313660 
	C82.736130,212.243362 82.267387,211.791321 74.989357,211.755096 
	C72.157104,211.740997 69.315857,211.834946 66.494881,211.642517 
	C61.838226,211.324875 59.879181,213.166351 59.960415,218.014847 
	C60.186470,231.506882 60.075325,245.004547 60.097591,259.500000 
M8.601069,146.166687 
	C9.233970,146.366837 9.866385,146.740295 10.499838,146.742065 
	C33.306637,146.806000 56.113632,146.876511 78.920334,146.826202 
	C82.458046,146.818390 84.378281,144.725677 84.384369,141.069855 
	C84.392960,135.909164 84.441101,130.748489 84.435730,125.587837 
	C84.431755,121.766724 82.708153,119.788376 78.655724,119.800789 
	C56.346207,119.869118 34.036388,119.864922 11.726730,119.837387 
	C7.532283,119.832207 5.654890,121.855888 5.682609,125.958992 
	C5.715223,130.786606 5.468882,135.626221 5.750215,140.436844 
	C5.856049,142.246506 7.101600,143.989517 8.601069,146.166687 
M194.710083,322.007690 
	C190.627853,315.384491 184.664383,313.168945 177.237381,314.793152 
	C171.141251,316.126251 167.422333,320.161652 165.932114,326.066315 
	C164.313477,332.479858 167.172256,338.961060 172.727356,342.354156 
	C178.011200,345.581635 186.227478,345.015350 190.977631,341.096375 
	C196.409500,336.614868 197.804962,330.278046 194.710083,322.007690 
M176.492737,65.717026 
	C171.293762,69.506348 169.058365,74.668694 170.194427,80.931999 
	C171.291565,86.980690 175.087357,90.843704 181.037201,92.676910 
	C187.153671,94.561440 193.765259,92.716522 197.663223,87.803482 
	C201.853806,82.521645 202.253250,75.728447 198.701035,70.154427 
	C195.119827,64.534904 188.829437,62.003021 182.283722,63.619404 
	C180.523056,64.054184 178.811798,64.689133 176.492737,65.717026 
M320.146301,76.817047 
	C320.255615,90.083580 331.697418,97.677025 342.418274,91.598022 
	C348.334229,88.243538 351.502350,81.010925 349.903229,74.510429 
	C348.339264,68.152885 342.202484,63.250149 335.718414,63.178040 
	C327.932281,63.091450 322.543182,67.552773 320.146301,76.817047 
M68.361000,200.430252 
	C79.561295,202.345276 88.925652,193.413528 86.573563,183.059036 
	C84.857452,175.504257 78.602348,170.576920 71.088875,170.861267 
	C64.315651,171.117599 57.997807,176.433716 56.893826,182.805634 
	C55.510120,190.792068 59.355335,197.022888 68.361000,200.430252 
M288.540344,200.485886 
	C290.270996,199.530350 292.170410,198.789154 293.703003,197.582138 
	C300.302582,192.384659 301.162750,182.870087 295.757355,176.307220 
	C290.471283,169.889236 280.721619,169.215881 274.432678,174.834503 
	C269.351166,179.374344 267.880554,185.876633 270.543823,192.028702 
	C273.329956,198.464706 279.519623,201.607452 288.540344,200.485886 
z"/>
<path fill="#FAFAFA" opacity="1.000000" stroke="none" 
	d="
M185.000076,119.859207 
	C195.832794,119.864014 206.166122,119.797401 216.498032,119.890038 
	C232.740921,120.035660 245.007263,130.327393 245.954407,146.454041 
	C247.017654,164.557983 246.563156,182.755005 246.619629,200.912018 
	C246.640320,207.565369 246.746719,214.284805 245.917404,220.861023 
	C244.047913,235.685913 231.801971,247.546463 217.002197,246.671005 
	C202.285538,245.800430 190.770569,249.593506 180.608932,260.368530 
	C173.977509,267.400238 165.635834,272.819031 157.245529,279.620819 
	C157.245529,268.483612 157.245529,258.050171 157.245529,247.074081 
	C147.496826,247.074081 137.920837,247.152618 128.346893,247.045746 
	C122.237312,246.977539 116.130798,246.634918 110.022911,246.415329 
	C109.722389,240.319092 109.178307,234.223526 109.161736,228.126526 
	C109.069321,194.128845 109.218849,160.129974 108.975418,126.133751 
	C108.938148,120.928177 110.557777,119.719086 115.505722,119.770042 
	C138.501709,120.006844 161.501587,119.865334 185.000076,119.859207 
M162.951141,242.643784 
	C166.071548,239.886322 169.312531,237.252502 172.290710,234.349167 
	C182.986404,223.922211 194.744446,217.040939 210.675461,219.733307 
	C217.131912,220.824463 219.768768,217.573502 219.798813,210.920471 
	C219.882370,192.424225 219.870422,173.927063 219.779984,155.430832 
	C219.750473,149.395020 217.164749,146.907806 211.239014,146.900726 
	C187.743011,146.872604 164.246307,146.985382 140.751587,146.811676 
	C136.693314,146.781677 135.656555,148.119095 135.695297,151.993881 
	C135.878571,170.322433 135.790588,188.653641 135.811569,206.983902 
	C135.826431,219.958176 135.835175,219.958160 148.939407,219.943527 
	C156.874420,219.934647 156.849960,219.934509 156.803757,227.741318 
	C156.766083,234.106400 156.796082,240.471893 156.796082,247.244110 
	C157.969238,246.652328 158.302185,246.554733 158.544937,246.350159 
	C159.817871,245.277313 161.067978,244.177383 162.951141,242.643784 
z"/>
<path fill="#FCFCFC" opacity="1.000000" stroke="none" 
	d="
M225.000153,9.713533 
	C263.982147,9.699214 302.464142,9.684646 340.946136,9.670815 
	C348.265045,9.668185 349.308838,10.720138 349.288300,18.079004 
	C349.280396,20.910976 349.256500,23.742918 349.253784,26.574888 
	C349.244629,36.109791 348.457611,36.908382 339.130432,36.904915 
	C311.809875,36.894756 284.489288,36.884663 257.168732,36.885288 
	C176.372879,36.887127 95.577042,36.894798 14.781196,36.898083 
	C6.892664,36.898407 5.718465,35.755848 5.702370,28.075155 
	C5.693643,23.910568 5.682978,19.745743 5.716763,15.581379 
	C5.748100,11.718686 7.727792,9.747452 11.599543,9.721431 
	C14.098120,9.704638 16.596888,9.714889 19.095570,9.714867 
	C87.563766,9.714280 156.031952,9.713931 225.000153,9.713533 
z"/>
<path fill="#FCFCFC" opacity="1.000000" stroke="none" 
	d="
M322.762604,255.999847 
	C322.769684,212.862473 322.771576,170.225113 322.788849,127.587761 
	C322.791840,120.239471 323.896332,119.148643 331.079315,119.126083 
	C334.743317,119.114578 338.407349,119.053902 342.071198,119.065781 
	C348.124481,119.085403 349.389008,120.487953 349.386047,126.973526 
	C349.373383,154.621002 349.364532,182.268478 349.365784,209.915955 
	C349.367554,248.222946 349.392395,286.529938 349.380646,324.836914 
	C349.376404,338.694611 344.205353,343.777740 330.372986,343.771729 
	C295.563568,343.756561 260.754150,343.770538 225.944733,343.773468 
	C218.553925,343.774109 217.547729,342.775543 217.547455,335.472626 
	C217.547348,332.474945 217.516800,329.477295 217.506668,326.479614 
	C217.484909,320.035553 218.612930,318.827332 224.953568,318.820679 
	C255.265991,318.788971 285.578461,318.784180 315.890930,318.773926 
	C322.778412,318.771576 322.787018,318.779083 322.785767,311.961334 
	C322.782318,293.474182 322.770874,274.987000 322.762604,255.999847 
z"/>
<path fill="#FCFCFC" opacity="1.000000" stroke="none" 
	d="
M54.000412,318.752136 
	C79.485420,318.740845 104.470490,318.729370 129.455551,318.716095 
	C136.289032,318.712463 137.155228,319.574066 137.193665,326.555847 
	C137.213837,330.220154 137.102798,333.886597 137.191528,337.548676 
	C137.300262,342.036041 135.046097,343.834717 130.744049,343.799194 
	C122.249680,343.729126 113.754341,343.772949 105.259407,343.773560 
	C77.942360,343.775513 50.625301,343.793640 23.308264,343.775635 
	C11.254086,343.767670 5.653891,338.137726 5.646718,325.975555 
	C5.620389,281.335541 5.614275,236.695541 5.629843,192.055542 
	C5.634366,179.088074 9.954525,174.778503 23.025709,174.597260 
	C28.188150,174.525681 33.352005,174.554047 38.515221,174.541199 
	C42.417587,174.531479 44.319324,176.438873 44.283314,180.384384 
	C44.240761,185.047394 44.166191,189.718216 44.378654,194.373184 
	C44.597950,199.177826 42.300213,201.317947 37.773666,200.730499 
	C32.908371,200.099091 32.024872,202.179306 32.046410,206.618881 
	C32.219311,242.263443 32.227783,277.909546 32.056606,313.554047 
	C32.035732,317.900085 33.508198,319.034393 37.513832,318.833679 
	C42.830738,318.567291 48.170513,318.757355 54.000412,318.752136 
z"/>
<path fill="#FAFAFA" opacity="1.000000" stroke="none" 
	d="
M50.999924,91.721481 
	C38.502850,91.718231 26.505766,91.725838 14.508722,91.707024 
	C6.721661,91.694809 5.699193,90.641495 5.663461,82.700363 
	C5.646967,79.034653 5.599714,75.367836 5.665268,71.703285 
	C5.763888,66.190361 7.037465,64.803726 12.461072,64.798996 
	C55.783852,64.761208 99.106705,64.799118 142.429443,64.741356 
	C146.952148,64.735329 148.754837,66.946129 148.756195,71.167213 
	C148.757584,75.499481 148.810669,79.832199 148.764221,84.163902 
	C148.699493,90.201302 147.115524,91.777100 140.977951,91.777031 
	C111.151939,91.776688 81.325935,91.743011 50.999924,91.721481 
z"/>
<path fill="#F8F8F8" opacity="1.000000" stroke="none" 
	d="
M245.000061,273.178833 
	C254.474945,273.179474 263.449799,273.179474 273.140137,273.179474 
	C273.140137,271.115417 273.141144,269.359894 273.140015,267.604370 
	C273.129333,251.110687 273.253937,234.615112 273.022522,218.124527 
	C272.955444,213.345871 274.525726,211.340515 279.352295,211.727875 
	C282.497314,211.980301 285.679352,211.782944 288.844727,211.767029 
	C294.724884,211.737488 295.580139,212.486450 295.602753,218.275726 
	C295.659363,232.769974 295.651642,247.264481 295.660522,261.758881 
	C295.664612,268.422913 295.781494,275.090424 295.607056,281.750092 
	C295.363251,291.056976 290.079712,296.146667 280.804291,296.162567 
	C254.647751,296.207458 228.491135,296.218201 202.334534,296.217468 
	C196.681580,296.217285 195.383804,294.839539 195.372894,289.060364 
	C195.367859,286.394897 195.394333,283.729340 195.397995,281.063843 
	C195.407669,273.990845 196.126465,273.227295 203.016129,273.214691 
	C216.844086,273.189423 230.672073,273.188904 245.000061,273.178833 
z"/>
<path fill="#F9F9F9" opacity="1.000000" stroke="none" 
	d="
M273.146973,108.000664 
	C273.147339,101.559158 273.147339,95.617493 273.147339,89.193687 
	C263.473083,89.193687 254.363297,89.186020 245.253555,89.196236 
	C238.595413,89.203712 231.935257,89.141945 225.279953,89.289879 
	C221.257645,89.379280 219.434540,87.580299 219.471786,83.634224 
	C219.511078,79.473244 219.511169,75.311462 219.480392,71.150391 
	C219.454605,67.664299 221.066757,65.927864 224.621460,65.932037 
	C244.096741,65.954918 263.572784,65.846077 283.046936,65.996277 
	C289.578339,66.046654 294.213409,70.460152 295.281677,76.969704 
	C295.576233,78.764610 295.652649,80.612259 295.653870,82.435822 
	C295.669739,106.239090 295.662445,130.042404 295.640533,153.845673 
	C295.634918,159.931015 294.534393,160.972336 288.272461,161.015411 
	C285.276337,161.036011 282.268524,160.881027 279.286652,161.094254 
	C274.731201,161.419968 273.062042,159.435257 273.103149,154.941528 
	C273.244843,139.462357 273.150848,123.981026 273.146973,108.000664 
z"/>
<path fill="#F9F9F9" opacity="1.000000" stroke="none" 
	d="
M60.097473,259.000000 
	C60.075325,245.004547 60.186470,231.506882 59.960415,218.014847 
	C59.879181,213.166351 61.838226,211.324875 66.494881,211.642517 
	C69.315857,211.834946 72.157104,211.740997 74.989357,211.755096 
	C82.267387,211.791321 82.736130,212.243362 82.739723,219.313660 
	C82.747948,235.474930 82.755867,251.636185 82.763702,267.797455 
	C82.764488,269.416962 82.763802,271.036499 82.763802,273.163330 
	C92.190628,273.163330 101.138474,273.164581 110.086311,273.162964 
	C117.083946,273.161682 124.082352,273.218475 131.078918,273.130402 
	C135.266022,273.077759 137.224564,274.930878 137.085327,279.163208 
	C136.959366,282.991577 137.024597,286.826447 137.017624,290.658447 
	C137.011047,294.272430 135.452927,296.220337 131.599197,296.209473 
	C112.105904,296.154449 92.611725,296.264069 73.119316,296.119690 
	C65.568596,296.063782 60.304413,290.448792 60.123264,282.491089 
	C59.948895,274.831146 60.093269,267.164001 60.097473,259.000000 
z"/>
<path fill="#FBFBFB" opacity="1.000000" stroke="none" 
	d="
M8.214319,145.964813 
	C7.101600,143.989517 5.856049,142.246506 5.750215,140.436844 
	C5.468882,135.626221 5.715223,130.786606 5.682609,125.958992 
	C5.654890,121.855888 7.532283,119.832207 11.726730,119.837387 
	C34.036388,119.864922 56.346207,119.869118 78.655724,119.800789 
	C82.708153,119.788376 84.431755,121.766724 84.435730,125.587837 
	C84.441101,130.748489 84.392960,135.909164 84.384369,141.069855 
	C84.378281,144.725677 82.458046,146.818390 78.920334,146.826202 
	C56.113632,146.876511 33.306637,146.806000 10.499838,146.742065 
	C9.866385,146.740295 9.233970,146.366837 8.214319,145.964813 
z"/>
<path fill="#F7F7F7" opacity="1.000000" stroke="none" 
	d="
M194.869827,322.351990 
	C197.804962,330.278046 196.409500,336.614868 190.977631,341.096375 
	C186.227478,345.015350 178.011200,345.581635 172.727356,342.354156 
	C167.172256,338.961060 164.313477,332.479858 165.932114,326.066315 
	C167.422333,320.161652 171.141251,316.126251 177.237381,314.793152 
	C184.664383,313.168945 190.627853,315.384491 194.869827,322.351990 
z"/>
<path fill="#F8F8F8" opacity="1.000000" stroke="none" 
	d="
M176.785309,65.474609 
	C178.811798,64.689133 180.523056,64.054184 182.283722,63.619404 
	C188.829437,62.003021 195.119827,64.534904 198.701035,70.154427 
	C202.253250,75.728447 201.853806,82.521645 197.663223,87.803482 
	C193.765259,92.716522 187.153671,94.561440 181.037201,92.676910 
	C175.087357,90.843704 171.291565,86.980690 170.194427,80.931999 
	C169.058365,74.668694 171.293762,69.506348 176.785309,65.474609 
z"/>
<path fill="#F7F7F7" opacity="1.000000" stroke="none" 
	d="
M320.187134,76.409340 
	C322.543182,67.552773 327.932281,63.091450 335.718414,63.178040 
	C342.202484,63.250149 348.339264,68.152885 349.903229,74.510429 
	C351.502350,81.010925 348.334229,88.243538 342.418274,91.598022 
	C331.697418,97.677025 320.255615,90.083580 320.187134,76.409340 
z"/>
<path fill="#F8F8F8" opacity="1.000000" stroke="none" 
	d="
M67.984604,200.298782 
	C59.355335,197.022888 55.510120,190.792068 56.893826,182.805634 
	C57.997807,176.433716 64.315651,171.117599 71.088875,170.861267 
	C78.602348,170.576920 84.857452,175.504257 86.573563,183.059036 
	C88.925652,193.413528 79.561295,202.345276 67.984604,200.298782 
z"/>
<path fill="#F7F7F7" opacity="1.000000" stroke="none" 
	d="
M288.158936,200.632416 
	C279.519623,201.607452 273.329956,198.464706 270.543823,192.028702 
	C267.880554,185.876633 269.351166,179.374344 274.432678,174.834503 
	C280.721619,169.215881 290.471283,169.889236 295.757355,176.307220 
	C301.162750,182.870087 300.302582,192.384659 293.703003,197.582138 
	C292.170410,198.789154 290.270996,199.530350 288.158936,200.632416 
z"/>
<path fill="#030303" opacity="1.000000" stroke="none" 
	d="
M162.638580,242.865326 
	C161.067978,244.177383 159.817871,245.277313 158.544937,246.350159 
	C158.302185,246.554733 157.969238,246.652328 156.796082,247.244110 
	C156.796082,240.471893 156.766083,234.106400 156.803757,227.741318 
	C156.849960,219.934509 156.874420,219.934647 148.939407,219.943527 
	C135.835175,219.958160 135.826431,219.958176 135.811569,206.983902 
	C135.790588,188.653641 135.878571,170.322433 135.695297,151.993881 
	C135.656555,148.119095 136.693314,146.781677 140.751587,146.811676 
	C164.246307,146.985382 187.743011,146.872604 211.239014,146.900726 
	C217.164749,146.907806 219.750473,149.395020 219.779984,155.430832 
	C219.870422,173.927063 219.882370,192.424225 219.798813,210.920471 
	C219.768768,217.573502 217.131912,220.824463 210.675461,219.733307 
	C194.744446,217.040939 182.986404,223.922211 172.290710,234.349167 
	C169.312531,237.252502 166.071548,239.886322 162.638580,242.865326 
z"/>
</svg>